<svg width="109" height="14" viewBox="0 0 109 14" fill="none" xmlns="http://www.w3.org/2000/svg">
<path d="M10.2318 0H4.18933C1.56469 0 0 1.519 0 4.067V9.926C0 12.481 1.56469 14 4.18933 14H10.2246C12.8492 14 14.4139 12.481 14.4139 9.933V4.067C14.4211 1.519 12.8564 0 10.2318 0ZM5.1267 10.43C5.1267 10.626 4.96807 10.78 4.76618 10.78H2.75443C2.55254 10.78 2.3939 10.626 2.3939 10.43V7.196C2.3939 6.755 2.76164 6.398 3.21591 6.398H4.76618C4.96807 6.398 5.1267 6.552 5.1267 6.748V10.43ZM8.57335 10.43C8.57335 10.626 8.41471 10.78 8.21282 10.78H6.20108C5.99918 10.78 5.84055 10.626 5.84055 10.43V4.018C5.84055 3.577 6.20829 3.22 6.66255 3.22H7.75855C8.21282 3.22 8.58056 3.577 8.58056 4.018V10.43H8.57335ZM12.0272 10.43C12.0272 10.626 11.8686 10.78 11.6667 10.78H9.65493C9.45303 10.78 9.2944 10.626 9.2944 10.43V7.945C9.2944 7.749 9.45303 7.595 9.65493 7.595H11.2052C11.6595 7.595 12.0272 7.952 12.0272 8.393V10.43Z" fill="black"/>
<path d="M25.0941 11.1941C24.4225 11.1941 23.7711 11.1076 23.1399 10.9347C22.5168 10.754 22.0151 10.5221 21.6348 10.2392L22.3024 8.80084C22.6665 9.06021 23.0994 9.26849 23.6011 9.42568C24.1028 9.58288 24.6045 9.66147 25.1062 9.66147C25.6646 9.66147 26.0773 9.58288 26.3443 9.42568C26.6114 9.26063 26.7449 9.04449 26.7449 8.77726C26.7449 8.58077 26.664 8.41965 26.5021 8.29389C26.3484 8.16028 26.1461 8.05418 25.8952 7.97558C25.6525 7.89698 25.3207 7.81052 24.8999 7.71621C24.2525 7.56688 23.7225 7.41754 23.3098 7.26821C22.8971 7.11888 22.5411 6.87916 22.2417 6.54905C21.9504 6.21895 21.8047 5.77881 21.8047 5.22863C21.8047 4.74919 21.9382 4.31691 22.2053 3.93179C22.4723 3.53881 22.8729 3.22835 23.4069 3.00042C23.9491 2.77249 24.6086 2.65853 25.3854 2.65853C25.9276 2.65853 26.4576 2.7214 26.9755 2.84716C27.4934 2.97291 27.9466 3.15368 28.335 3.38947L27.7281 4.83958C26.9431 4.4073 26.1582 4.19116 25.3733 4.19116C24.823 4.19116 24.4144 4.27761 24.1473 4.45053C23.8884 4.62344 23.7589 4.85137 23.7589 5.13431C23.7589 5.41726 23.9086 5.62947 24.208 5.77095C24.5155 5.90456 24.9808 6.03817 25.6039 6.17179C26.2513 6.32112 26.7813 6.47046 27.194 6.61979C27.6067 6.76912 27.9587 7.00491 28.25 7.32716C28.5494 7.6494 28.6991 8.08561 28.6991 8.63579C28.6991 9.10737 28.5615 9.53965 28.2864 9.93263C28.0194 10.3178 27.6148 10.6243 27.0726 10.8522C26.5304 11.0801 25.8709 11.1941 25.0941 11.1941Z" fill="black"/>
<path d="M32.7131 8.56505L31.8027 9.43747V11.0526H29.9092V2.30484H31.8027V7.25642L34.5702 4.70989H36.8279L34.109 7.39789L37.0707 11.0526H34.7766L32.7131 8.56505Z" fill="black"/>
<path d="M44.0246 4.70989L41.0751 11.4417C40.7757 12.1726 40.4034 12.6874 39.9584 12.9861C39.5214 13.2848 38.9914 13.4341 38.3683 13.4341C38.0284 13.4341 37.6926 13.383 37.3608 13.2808C37.0291 13.1787 36.758 13.0372 36.5476 12.8564L37.2395 11.5478C37.3851 11.6735 37.551 11.7718 37.7371 11.8425C37.9313 11.9133 38.1215 11.9486 38.3076 11.9486C38.5665 11.9486 38.7769 11.8858 38.9388 11.76C39.1006 11.6421 39.2463 11.4417 39.3757 11.1587L39.4 11.0998L36.5719 4.70989H38.5261L40.3589 9.01305L42.2039 4.70989H44.0246Z" fill="black"/>
<path d="M48.6572 4.61558C49.2641 4.61558 49.8143 4.75312 50.3079 5.02821C50.8097 5.29544 51.2021 5.67663 51.4853 6.17179C51.7686 6.65909 51.9102 7.22891 51.9102 7.88126C51.9102 8.53361 51.7686 9.10737 51.4853 9.60252C51.2021 10.0898 50.8097 10.471 50.3079 10.7461C49.8143 11.0133 49.2641 11.1469 48.6572 11.1469C47.8237 11.1469 47.1682 10.8915 46.6908 10.3806V13.3398H44.7973V4.70989H46.6058V5.44084C47.0752 4.89067 47.759 4.61558 48.6572 4.61558ZM48.3294 9.63789C48.815 9.63789 49.2115 9.4807 49.519 9.16631C49.8346 8.84407 49.9924 8.41572 49.9924 7.88126C49.9924 7.34681 49.8346 6.92238 49.519 6.608C49.2115 6.28575 48.815 6.12463 48.3294 6.12463C47.8439 6.12463 47.4434 6.28575 47.1278 6.608C46.8203 6.92238 46.6665 7.34681 46.6665 7.88126C46.6665 8.41572 46.8203 8.84407 47.1278 9.16631C47.4434 9.4807 47.8439 9.63789 48.3294 9.63789Z" fill="black"/>
<path d="M54.9863 5.54695C55.2129 5.24042 55.5163 5.00856 55.8967 4.85137C56.2851 4.69417 56.7301 4.61558 57.2318 4.61558V6.31326C57.0215 6.29754 56.8798 6.28968 56.807 6.28968C56.2648 6.28968 55.84 6.43902 55.5325 6.73768C55.225 7.02849 55.0713 7.46863 55.0713 8.0581V11.0526H53.1777V4.70989H54.9863V5.54695Z" fill="black"/>
<path d="M61.4058 11.1469C60.718 11.1469 60.099 11.0094 59.5487 10.7343C59.0065 10.4514 58.5817 10.0623 58.2742 9.56716C57.9667 9.072 57.813 8.51003 57.813 7.88126C57.813 7.25249 57.9667 6.69053 58.2742 6.19537C58.5817 5.70021 59.0065 5.31509 59.5487 5.04C60.099 4.75705 60.718 4.61558 61.4058 4.61558C62.0936 4.61558 62.7086 4.75705 63.2508 5.04C63.793 5.31509 64.2178 5.70021 64.5253 6.19537C64.8328 6.69053 64.9865 7.25249 64.9865 7.88126C64.9865 8.51003 64.8328 9.072 64.5253 9.56716C64.2178 10.0623 63.793 10.4514 63.2508 10.7343C62.7086 11.0094 62.0936 11.1469 61.4058 11.1469ZM61.4058 9.63789C61.8913 9.63789 62.2878 9.4807 62.5953 9.16631C62.9109 8.84407 63.0687 8.41572 63.0687 7.88126C63.0687 7.34681 62.9109 6.92238 62.5953 6.608C62.2878 6.28575 61.8913 6.12463 61.4058 6.12463C60.9203 6.12463 60.5197 6.28575 60.2041 6.608C59.8886 6.92238 59.7308 7.34681 59.7308 7.88126C59.7308 8.41572 59.8886 8.84407 60.2041 9.16631C60.5197 9.4807 60.9203 9.63789 61.4058 9.63789Z" fill="black"/>
<path d="M66.8854 11.1469C66.5536 11.1469 66.2744 11.0369 66.0478 10.8168C65.8213 10.5968 65.708 10.3217 65.708 9.99158C65.708 9.65361 65.8213 9.38246 66.0478 9.1781C66.2744 8.96589 66.5536 8.85979 66.8854 8.85979C67.2171 8.85979 67.4963 8.96589 67.7229 9.1781C67.9495 9.38246 68.0628 9.65361 68.0628 9.99158C68.0628 10.3217 67.9495 10.5968 67.7229 10.8168C67.4963 11.0369 67.2171 11.1469 66.8854 11.1469Z" fill="black"/>
<path d="M81.8593 2.8L79.0796 11.0526H76.9676L75.0984 5.46442L73.1684 11.0526H71.0685L68.2768 2.8H70.316L72.2338 8.60042L74.2366 2.8H76.0573L77.9994 8.64758L79.9779 2.8H81.8593Z" fill="black"/>
<path d="M84.9714 4.61558C85.9829 4.61558 86.7598 4.85137 87.3019 5.32295C87.8441 5.78667 88.1152 6.49011 88.1152 7.43326V11.0526H86.343V10.2627C85.987 10.8522 85.3234 11.1469 84.3524 11.1469C83.8507 11.1469 83.4137 11.0644 83.0415 10.8994C82.6773 10.7343 82.3982 10.5064 82.204 10.2156C82.0097 9.92477 81.9126 9.59467 81.9126 9.22526C81.9126 8.63579 82.1392 8.17207 82.5924 7.8341C83.0536 7.49614 83.7617 7.32716 84.7165 7.32716H86.2216C86.2216 6.92631 86.0962 6.61979 85.8454 6.40758C85.5945 6.18751 85.2182 6.07747 84.7165 6.07747C84.3686 6.07747 84.0247 6.13249 83.6848 6.24253C83.353 6.3447 83.0698 6.48617 82.8351 6.66695L82.1554 5.38189C82.5115 5.13824 82.9363 4.94961 83.4299 4.816C83.9316 4.68238 84.4454 4.61558 84.9714 4.61558ZM84.8258 9.90905C85.1495 9.90905 85.4367 9.83832 85.6876 9.69684C85.9384 9.54751 86.1165 9.33137 86.2216 9.04842V8.4H84.9229C84.146 8.4 83.7576 8.64758 83.7576 9.14274C83.7576 9.37853 83.8507 9.56716 84.0368 9.70863C84.231 9.84224 84.494 9.90905 84.8258 9.90905Z" fill="black"/>
<path d="M89.8289 2.30484H91.7225V11.0526H89.8289V2.30484Z" fill="black"/>
<path d="M93.4798 2.30484H95.3733V11.0526H93.4798V2.30484Z" fill="black"/>
<path d="M103.527 7.90484C103.527 7.92842 103.515 8.09347 103.491 8.4H98.5508C98.6399 8.79298 98.8503 9.10344 99.182 9.33137C99.5138 9.5593 99.9265 9.67326 100.42 9.67326C100.76 9.67326 101.059 9.6261 101.318 9.53179C101.585 9.42961 101.832 9.27242 102.059 9.06021L103.066 10.1213C102.451 10.8051 101.553 11.1469 100.372 11.1469C99.6352 11.1469 98.9838 11.0094 98.4173 10.7343C97.8509 10.4514 97.4139 10.0623 97.1064 9.56716C96.7989 9.072 96.6452 8.51003 96.6452 7.88126C96.6452 7.26035 96.7949 6.70231 97.0943 6.20716C97.4018 5.70414 97.8185 5.31509 98.3445 5.04C98.8786 4.75705 99.4734 4.61558 100.129 4.61558C100.768 4.61558 101.347 4.74919 101.865 5.01642C102.382 5.28365 102.787 5.66877 103.078 6.17179C103.378 6.66695 103.527 7.24463 103.527 7.90484ZM100.141 6.00674C99.7121 6.00674 99.352 6.12463 99.0607 6.36042C98.7693 6.59621 98.5913 6.91845 98.5266 7.32716H101.743C101.678 6.92631 101.5 6.608 101.209 6.37221C100.918 6.12856 100.562 6.00674 100.141 6.00674Z" fill="black"/>
<path d="M109 10.7461C108.814 10.8797 108.583 10.9819 108.308 11.0526C108.041 11.1155 107.758 11.1469 107.458 11.1469C106.682 11.1469 106.079 10.9544 105.65 10.5693C105.229 10.1841 105.019 9.61825 105.019 8.87158V6.2661H104.011V4.85137H105.019V3.30695H106.912V4.85137H108.539V6.2661H106.912V8.848C106.912 9.11523 106.981 9.32351 107.119 9.47284C107.264 9.61432 107.467 9.68505 107.726 9.68505C108.025 9.68505 108.28 9.60646 108.49 9.44926L109 10.7461Z" fill="black"/>
</svg>
